<?xml version="1.0" encoding="UTF-8"?>
<svg id="Capa_1" xmlns="http://www.w3.org/2000/svg" viewBox="0 0 1954.9 1894.28">
  <defs>
    <style>
      .cls-1 {
        stroke-width: 0px;
      }

      .cls-1, .cls-2, .cls-3, .cls-4 {
        fill: #1d1d1b;
      }

      .cls-1, .cls-3 {
        stroke: #1e1e1c;
      }

      .cls-1, .cls-5 {
        stroke-miterlimit: 10;
      }

      .cls-6 {
        letter-spacing: -.03em;
      }

      .cls-7 {
        letter-spacing: -.02em;
      }

      .cls-2 {
        font-family: Gabriola, Gabriola;
        font-size: 363px;
      }

      .cls-8 {
        fill: #3daa35;
        font-family: BellMTBold, 'Bell MT';
        font-size: 147px;
      }

      .cls-3, .cls-5 {
        stroke-width: .1px;
      }

      .cls-3, .cls-5, .cls-4 {
        stroke-linecap: round;
      }

      .cls-3, .cls-4 {
        stroke-linejoin: round;
      }

      .cls-9 {
        letter-spacing: 0em;
      }

      .cls-5 {
        fill: #f49525;
        stroke: #f49525;
      }

      .cls-10 {
        letter-spacing: .02em;
      }

      .cls-11 {
        letter-spacing: .02em;
      }

      .cls-4 {
        stroke: #1d1d1b;
      }
    </style>
  </defs>
  <path class="cls-5" d="M1590.48,789.32c-96.59-238.87-330.72-407.4-604.22-407.4-352.34,0-639.35,279.7-651.11,629.18l30.15-1.13c240.73-12.28,288.53,16.03,288.53,16.03-15.83,22.33-178.68,12.96-178.68,12.96,79.28,21.48-139.89,19.88-139.89,19.88,13.36,348.01,299.71,626.04,650.99,626.04,212.52,0,401.27-101.76,520.19-259.21,0,0-354.91,3.19-396.51-21.36,0,0,169.61-30.35,281.45-18.07,0,0-94.01-19.22,3.17-20.93l157.48-8.71c54.53-95.25,85.7-205.59,85.7-323.21,0-71.08-11.38-139.51-32.43-203.55,0,0-144.62,9.34-203.44-13.16,0,0,27.88-18,188.61-6.75,0,0-119.3-17.05-13.26-22.16l13.26,1.55Z"/>
  <text class="cls-8" transform="translate(5.26 1855.02)"><tspan class="cls-11" x="0" y="0">GRAN</tspan><tspan class="cls-9" x="447.51" y="0">J</tspan><tspan class="cls-11" x="515.4" y="0">A </tspan><tspan class="cls-6" x="662.6" y="0">A</tspan><tspan class="cls-11" x="760.93" y="0">G</tspan><tspan class="cls-7" x="883.16" y="0">R</tspan><tspan class="cls-10" x="982.93" y="0">OTURISTICA</tspan></text>
  <path class="cls-1" d="M339.58,1661.83s-1-27.39,8.69-47.77c0,0-5.01,37.42-1.67,46.1,3.34,8.69,8.02-12.03.33-69.82,0,0,5.54,24.73,7.24,35.86,0,0,5.09-21.49,4.9-52.26,0,0,5.28,62.07,3.21,86.97,0,0,3.21-52.82,2.08-65.46,0,0,5.47,13.02,5.09,33.39,0,0,3.77-1.7,5.47-19.62,0,0,3.4,48.29,1.89,50.56-1.51,2.26,6.41,1.51,6.41,1.51v-25.28s-4.53-6.23-5.28-12.26c0,0,1.24,3.42,5.28,4.45,0,0,2.81-8.49,1.4-23.58,0,0,5.28,24.34,2.92,30.28,0,0,2.08,6.6,4.62,12.07,2.55,5.47,19.77-72.82-33.01-121.93,0,0,47.23,33.81,42.22,133.53,0,0,11.2-107.36,44.61-160.14,0,0-32.07,53.78-29.73,149.66l5.35-29.4s-4.68,24.05.67,29.4c0,0,7.68-63.47,38.42-108.24,0,0-30.73,60.8-28.4,92.87,0,0,8.69,2.34,15.37-30.07l-1.34,17.04-3.33,23.33s1.89,1.13,5.09-5.66c3.21-6.79-1.7,23.77-1.7,23.77h6.23s1.51-10.75-.94-23.96l-4.34-14.9s4.34,1.32,9.06,9.62c0,0-.75-3.4,5.28-19.24,0,0-4.72,42.05,1.51,49.42h5.09v-51.11l4.53,20s-3.4-20.37,0-31.32c0,0,3.4,29.43,8.11,61.31l3.21,1.12-4.9-57.72s4.72,32.07,14.9,27.54l1.21-29.03s1.51,30.21,6.79,59.93h4.02l.67-54.01s1.7,18.49,5.47,26.79,2.83-45.65,2.83-45.65c0,0,4.42,52.31,1.4,72.87h3.21l2.33-65.71s.85,18.39,2.64,21.51c1.79,3.11,9.72-46.78,9.72-46.78,0,0-5.09,34.81-1.32,45.18,0,0,4.15,16.41,7.83,45.81h3.49s-.09-48.92,8.58-64.39c0,0-8.87,39.62-3.77,47.16,0,0,6.98-7.92,8.68-33.39,0,0,1.89,37.35-2.08,43.96,0,0,9.81-16.22,27.73-54.9,0,0-4.34,10.94-3.77,16.79.57,5.85,9.43,15.09,9.43,15.09,0,0,5.66-6.98,6.41-21.32,0,0-3.21,57.6,1.7,51l5.19-.06.66-54.33,4.34,23.58s10-15.28,4.53-41.88c0,0,9.06,26.6,8.11,34.52-.94,7.92,5.47-37.92,5.47-37.92,0,0-1.79,72.13,1.41,76.09h5.19s-4.9-59.49-2.83-71.18c0,0,5.09,24.34,6.6,40.75l4.9-24.52s-1.51,53.58,1.13,54.71l7.64.09v40.37h-314.5v-40.67l4.42-.5Z"/>
  <path class="cls-1" d="M654.08,1661.83s-1-27.39,8.69-47.77c0,0-5.01,37.42-1.67,46.1,3.34,8.69,8.02-12.03.33-69.82,0,0,5.54,24.73,7.24,35.86,0,0,5.09-21.49,4.9-52.26,0,0,5.28,62.07,3.21,86.97,0,0,3.21-52.82,2.08-65.46,0,0,5.47,13.02,5.09,33.39,0,0,3.77-1.7,5.47-19.62,0,0,3.4,48.29,1.89,50.56-1.51,2.26,6.41,1.51,6.41,1.51v-25.28s-4.53-6.23-5.28-12.26c0,0,1.24,3.42,5.28,4.45,0,0,2.81-8.49,1.4-23.58,0,0,5.28,24.34,2.92,30.28,0,0,2.08,6.6,4.62,12.07,2.55,5.47,19.77-72.82-33.01-121.93,0,0,47.23,33.81,42.22,133.53,0,0,11.2-107.36,44.61-160.14,0,0-32.07,53.78-29.73,149.66l5.35-29.4s-4.68,24.05.67,29.4c0,0,7.68-63.47,38.42-108.24,0,0-30.73,60.8-28.4,92.87,0,0,8.69,2.34,15.37-30.07l-1.34,17.04-3.33,23.33s1.89,1.13,5.09-5.66c3.21-6.79-1.7,23.77-1.7,23.77h6.23s1.51-10.75-.94-23.96l-4.34-14.9s4.34,1.32,9.06,9.62c0,0-.75-3.4,5.28-19.24,0,0-4.72,42.05,1.51,49.42h5.09v-51.11l4.53,20s-3.4-20.37,0-31.32c0,0,3.4,29.43,8.11,61.31l3.21,1.12-4.9-57.72s4.72,32.07,14.9,27.54l1.21-29.03s1.51,30.21,6.79,59.93h4.02l.67-54.01s1.7,18.49,5.47,26.79c3.77,8.3,2.83-45.65,2.83-45.65,0,0,4.42,52.31,1.4,72.87h3.21l2.33-65.71s.85,18.39,2.64,21.51c1.79,3.11,9.72-46.78,9.72-46.78,0,0-5.09,34.81-1.32,45.18,0,0,4.15,16.41,7.83,45.81h3.49s-.09-48.92,8.58-64.39c0,0-8.87,39.62-3.77,47.16,0,0,6.98-7.92,8.68-33.39,0,0,1.89,37.35-2.08,43.96,0,0,9.81-16.22,27.73-54.9,0,0-4.34,10.94-3.77,16.79.57,5.85,9.43,15.09,9.43,15.09,0,0,5.66-6.98,6.41-21.32,0,0-3.21,57.6,1.7,51l5.19-.06.66-54.33,4.34,23.58s10-15.28,4.53-41.88c0,0,9.06,26.6,8.11,34.52-.94,7.92,5.47-37.92,5.47-37.92,0,0-1.79,72.13,1.41,76.09h5.19s-4.9-59.49-2.83-71.18c0,0,5.09,24.34,6.6,40.75l4.9-24.52s-1.51,53.58,1.13,54.71l7.64.09v40.37h-314.5v-40.67l4.42-.5Z"/>
  <path class="cls-1" d="M968.58,1661.83s-1-27.39,8.69-47.77c0,0-5.01,37.42-1.67,46.1s8.02-12.03.33-69.82c0,0,5.54,24.73,7.24,35.86,0,0,5.09-21.49,4.9-52.26,0,0,5.28,62.07,3.21,86.97,0,0,3.21-52.82,2.08-65.46,0,0,5.47,13.02,5.09,33.39,0,0,3.77-1.7,5.47-19.62,0,0,3.4,48.29,1.89,50.56-1.51,2.26,6.41,1.51,6.41,1.51v-25.28s-4.53-6.23-5.28-12.26c0,0,1.24,3.42,5.28,4.45,0,0,2.81-8.49,1.4-23.58,0,0,5.28,24.34,2.92,30.28,0,0,2.08,6.6,4.62,12.07,2.55,5.47,19.77-72.82-33.01-121.93,0,0,47.23,33.81,42.22,133.53,0,0,11.2-107.36,44.61-160.14,0,0-32.07,53.78-29.73,149.66l5.35-29.4s-4.68,24.05.67,29.4c0,0,7.68-63.47,38.42-108.24,0,0-30.73,60.8-28.4,92.87,0,0,8.69,2.34,15.37-30.07l-1.34,17.04-3.33,23.33s1.89,1.13,5.09-5.66c3.21-6.79-1.7,23.77-1.7,23.77h6.23s1.51-10.75-.94-23.96l-4.34-14.9s4.34,1.32,9.06,9.62c0,0-.75-3.4,5.28-19.24,0,0-4.72,42.05,1.51,49.42h5.09v-51.11l4.53,20s-3.4-20.37,0-31.32c0,0,3.4,29.43,8.11,61.31l3.21,1.12-4.9-57.72s4.72,32.07,14.9,27.54l1.21-29.03s1.51,30.21,6.79,59.93h4.02l.67-54.01s1.7,18.49,5.47,26.79c3.77,8.3,2.83-45.65,2.83-45.65,0,0,4.42,52.31,1.4,72.87h3.21l2.33-65.71s.85,18.39,2.64,21.51c1.79,3.11,9.72-46.78,9.72-46.78,0,0-5.09,34.81-1.32,45.18,0,0,4.15,16.41,7.83,45.81h3.49s-.09-48.92,8.58-64.39c0,0-8.87,39.62-3.77,47.16,0,0,6.98-7.92,8.68-33.39,0,0,1.89,37.35-2.08,43.96,0,0,9.81-16.22,27.73-54.9,0,0-4.34,10.94-3.77,16.79.57,5.85,9.43,15.09,9.43,15.09,0,0,5.66-6.98,6.41-21.32,0,0-3.21,57.6,1.7,51l5.19-.06.66-54.33,4.34,23.58s10-15.28,4.53-41.88c0,0,9.06,26.6,8.11,34.52-.94,7.92,5.47-37.92,5.47-37.92,0,0-1.79,72.13,1.41,76.09h5.19s-4.9-59.49-2.83-71.18c0,0,5.09,24.34,6.6,40.75l4.9-24.52s-1.51,53.58,1.13,54.71l7.64.09v40.37h-314.5v-40.67l4.42-.5Z"/>
  <path class="cls-1" d="M1283.08,1661.83s-1-27.39,8.69-47.77c0,0-5.01,37.42-1.67,46.1,3.34,8.69,8.02-12.03.33-69.82,0,0,5.54,24.73,7.24,35.86,0,0,5.09-21.49,4.9-52.26,0,0,5.28,62.07,3.21,86.97,0,0,3.21-52.82,2.08-65.46,0,0,5.47,13.02,5.09,33.39,0,0,3.77-1.7,5.47-19.62,0,0,3.4,48.29,1.89,50.56-1.51,2.26,6.41,1.51,6.41,1.51v-25.28s-4.53-6.23-5.28-12.26c0,0,1.24,3.42,5.28,4.45,0,0,2.81-8.49,1.4-23.58,0,0,5.28,24.34,2.92,30.28,0,0,2.08,6.6,4.62,12.07,2.55,5.47,19.77-72.82-33.01-121.93,0,0,47.23,33.81,42.22,133.53,0,0,11.2-107.36,44.61-160.14,0,0-32.07,53.78-29.73,149.66l5.35-29.4s-4.68,24.05.67,29.4c0,0,7.68-63.47,38.42-108.24,0,0-30.73,60.8-28.4,92.87,0,0,8.69,2.34,15.37-30.07l-1.34,17.04-3.33,23.33s1.89,1.13,5.09-5.66c3.21-6.79-1.7,23.77-1.7,23.77h6.23s1.51-10.75-.94-23.96l-4.34-14.9s4.34,1.32,9.06,9.62c0,0-.75-3.4,5.28-19.24,0,0-4.72,42.05,1.51,49.42h5.09v-51.11l4.53,20s-3.4-20.37,0-31.32c0,0,3.4,29.43,8.11,61.31l3.21,1.12-4.9-57.72s4.72,32.07,14.9,27.54l1.21-29.03s1.51,30.21,6.79,59.93h4.02l.67-54.01s1.7,18.49,5.47,26.79c3.77,8.3,2.83-45.65,2.83-45.65,0,0,4.42,52.31,1.4,72.87h3.21l2.33-65.71s.85,18.39,2.64,21.51c1.79,3.11,9.72-46.78,9.72-46.78,0,0-5.09,34.81-1.32,45.18,0,0,4.15,16.41,7.83,45.81h3.49s-.09-48.92,8.58-64.39c0,0-8.87,39.62-3.77,47.16,0,0,6.98-7.92,8.68-33.39,0,0,1.89,37.35-2.08,43.96,0,0,9.81-16.22,27.73-54.9,0,0-4.34,10.94-3.77,16.79.57,5.85,9.43,15.09,9.43,15.09,0,0,5.66-6.98,6.41-21.32,0,0-3.21,57.6,1.7,51l5.19-.06.66-54.33,4.34,23.58s10-15.28,4.53-41.88c0,0,9.06,26.6,8.11,34.52-.94,7.92,5.47-37.92,5.47-37.92,0,0-1.79,72.13,1.41,76.09h5.19s-4.9-59.49-2.83-71.18c0,0,5.09,24.34,6.6,40.75l4.9-24.52s-1.51,53.58,1.13,54.71l7.64.09v40.37h-314.5v-40.67l4.42-.5Z"/>
  <path class="cls-1" d="M1596.66,1661.83s-1-27.39,8.69-47.77c0,0-5.01,37.42-1.67,46.1s8.02-12.03.33-69.82c0,0,5.54,24.73,7.24,35.86,0,0,5.09-21.49,4.9-52.26,0,0,5.28,62.07,3.21,86.97,0,0,3.21-52.82,2.08-65.46,0,0,5.47,13.02,5.09,33.39,0,0,3.77-1.7,5.47-19.62,0,0,3.4,48.29,1.89,50.56-1.51,2.26,6.41,1.51,6.41,1.51v-25.28s-4.53-6.23-5.28-12.26c0,0,1.24,3.42,5.28,4.45,0,0,2.81-8.49,1.4-23.58,0,0,5.28,24.34,2.92,30.28,0,0,2.08,6.6,4.62,12.07,2.55,5.47,19.77-72.82-33.01-121.93,0,0,47.23,33.81,42.22,133.53,0,0,11.2-107.36,44.61-160.14,0,0-32.07,53.78-29.73,149.66l5.35-29.4s-4.68,24.05.67,29.4c0,0,7.68-63.47,38.42-108.24,0,0-30.73,60.8-28.4,92.87,0,0,8.69,2.34,15.37-30.07l-1.34,17.04-3.33,23.33s1.89,1.13,5.09-5.66c3.21-6.79-1.7,23.77-1.7,23.77h6.23s1.51-10.75-.94-23.96l-4.34-14.9s4.34,1.32,9.06,9.62c0,0-.75-3.4,5.28-19.24,0,0-4.72,42.05,1.51,49.42h5.09v-51.11l4.53,20s-3.4-20.37,0-31.32c0,0,3.4,29.43,8.11,61.31l3.21,1.12-4.9-57.72s4.72,32.07,14.9,27.54l1.21-29.03s1.51,30.21,6.79,59.93h4.02l.67-54.01s1.7,18.49,5.47,26.79c3.77,8.3,2.83-45.65,2.83-45.65,0,0,4.42,52.31,1.4,72.87h3.21l2.33-65.71s.85,18.39,2.64,21.51c1.79,3.11,9.72-46.78,9.72-46.78,0,0-5.09,34.81-1.32,45.18,0,0,4.15,16.41,7.83,45.81h3.49s-.09-48.92,8.58-64.39c0,0-8.87,39.62-3.77,47.16,0,0,6.98-7.92,8.68-33.39,0,0,1.89,37.35-2.08,43.96,0,0,9.81-16.22,27.73-54.9,0,0-4.34,10.94-3.77,16.79.57,5.85,9.43,15.09,9.43,15.09,0,0,5.66-6.98,6.41-21.32,0,0-3.21,57.6,1.7,51l5.19-.06.66-54.33,4.34,23.58s10-15.28,4.53-41.88c0,0,9.06,26.6,8.11,34.52-.94,7.92,5.47-37.92,5.47-37.92,0,0-1.79,72.13,1.41,76.09h5.19s-4.9-59.49-2.83-71.18c0,0,5.09,24.34,6.6,40.75l4.9-24.52s-1.51,53.58,1.13,54.71l7.64.09v40.37h-314.5v-40.67l4.42-.5Z"/>
  <path class="cls-3" d="M1288.46,641.63s29.62,35.09,60.56,43.39c30.94,8.3-40.37,8.3-40.37,8.3,0,0-53.76.75-53.95,51.5-.18,47.93,8.62,71.42,33.21,115.9,2.87,5.19,19.57,52.03,19.92,57.95,1.23,20.95,3.27,73.05-4.62,101.18-9.24,32.96-19.4,44.62-44.43,87.08-4.2,7.12-5.99,15.27-5.31,23.51,2.82,34.53,1.46,127.51-88,136.84,0,0-52.59,2.45-72.38-7.82l27.58-28.33,5.33-7.29-7.24,5.39-127.44,115.52c-2.24,2.63-4.44,5.23-6.68,7.86l-22.11,34.18s-6.66,17.39-18.65,29.28c-3.37,3.34-6.54,6.89-8.62,11.16l-82.28,168.67c-2.81,5.75-4.19,12.09-4.03,18.49l.3,11.9c.56,22.05-16.9,40.37-38.95,40.88l-17.39.4,1.82-31.02c.41-6.94,2.53-13.51,6.34-19.33,20.91-32,93.01-145.07,110.52-208.71,0,0,6.86-50.58,47.95-86.59,4.74-4.15,8.77-9.13,11.21-14.94l34.04-81.03-49.44,29.4s-34.41,14.7-43.09-30.73c0,0-56.13,7.24-65.65-40.36l-24,28.69c-3.9,4.67-32.28,25.24-37.88,27.62l-31.57,34.83c-3.67-20.61-18.54-78.17,8.19-127.46,2.02-3.72,3.4-7.74,5.98-11.09,7.13-9.3,23.11-28.21,40.21-35.27,0,0,40.59-23.05,45.6-44.6,0,0,153.9-156.16,326.75-19.19,10.71,8.49,25.03,11.89,37.83,7.1,22.47-8.41,51.11-35.91,47.73-122.19-.21-5.36-1.56-10.84-3.87-15.68-14.96-31.27-71.3-161.71-15.61-247.65,0,0,12.52-27.64,42.51-17.72Z"/>
  <path class="cls-3" d="M950.93,1263.1l.25,60.37s16.29-11.27,39.68-81.76c2-3.3-11.42,10.94-39.93,21.39Z"/>
  <path class="cls-3" d="M993.96,1355.18s-8.67-1.79-23.2,38.3l-11.13,16.98s14.65,19.49,69.77,205.89l5.34,29.78,50.79,12.32-31.9-51.61s-42.09-102.56-51.45-169.04c0,0-.33-39.75,5.35-55.45,0,0-5.93-8.33-13.1-10.4l-.46-16.75Z"/>
  <text class="cls-2" transform="translate(263.89 813) rotate(-66.71)"><tspan x="0" y="0">V</tspan></text>
  <text class="cls-2" transform="translate(345.52 640.46) rotate(-55.4)"><tspan x="0" y="0">I</tspan></text>
  <text class="cls-2" transform="translate(405.11 552.91) rotate(-44.85)"><tspan x="0" y="0">L</tspan></text>
  <text class="cls-2" transform="translate(527.9 434.55) rotate(-31.92)"><tspan x="0" y="0">L</tspan></text>
  <text class="cls-2" transform="translate(675.37 344.12) rotate(-17.45)"><tspan x="0" y="0">A</tspan></text>
  <text class="cls-2" transform="translate(873.07 290.59) rotate(-6.19)"><tspan x="0" y="0"> </tspan></text>
  <text class="cls-2" transform="translate(960.19 274.24) rotate(6.8)"><tspan x="0" y="0">M</tspan></text>
  <text class="cls-2" transform="translate(1211.08 311.29) rotate(24.14)"><tspan x="0" y="0">A</tspan></text>
  <text class="cls-2" transform="translate(1391.83 395.74) rotate(39)"><tspan x="0" y="0">R</tspan></text>
  <text class="cls-2" transform="translate(1537.12 521.73) rotate(50.11)"><tspan x="0" y="0">I</tspan></text>
  <text class="cls-2" transform="translate(1606.48 600.71) rotate(61.87)"><tspan x="0" y="0">A</tspan></text>
  <path class="cls-1" d="M25.45,1662.32s-1-27.39,8.69-47.77c0,0-5.01,37.42-1.67,46.1,3.34,8.69,8.02-12.03.33-69.82,0,0,5.54,24.73,7.24,35.86,0,0,5.09-21.49,4.9-52.26,0,0,5.28,62.07,3.21,86.97,0,0,3.21-52.82,2.08-65.46,0,0,5.47,13.02,5.09,33.39,0,0,3.77-1.7,5.47-19.62,0,0,3.4,48.29,1.89,50.56-1.51,2.26,6.41,1.51,6.41,1.51v-25.28s-4.53-6.23-5.28-12.26c0,0,1.24,3.42,5.28,4.45,0,0,2.81-8.49,1.4-23.58,0,0,5.28,24.34,2.92,30.28,0,0,2.08,6.6,4.62,12.07,2.55,5.47,19.77-72.82-33.01-121.93,0,0,47.23,33.81,42.22,133.53,0,0,11.2-107.36,44.61-160.14,0,0-32.07,53.78-29.73,149.66l5.35-29.4s-4.68,24.05.67,29.4c0,0,7.68-63.47,38.42-108.24,0,0-30.73,60.8-28.4,92.87,0,0,8.69,2.34,15.37-30.07l-1.34,17.04-3.33,23.33s1.89,1.13,5.09-5.66c3.21-6.79-1.7,23.77-1.7,23.77h6.23s1.51-10.75-.94-23.96l-4.34-14.9s4.34,1.32,9.06,9.62c0,0-.75-3.4,5.28-19.24,0,0-4.72,42.05,1.51,49.42h5.09v-51.11l4.53,20s-3.4-20.37,0-31.32c0,0,3.4,29.43,8.11,61.31l3.21,1.12-4.9-57.72s4.72,32.07,14.9,27.54l1.21-29.03s1.51,30.21,6.79,59.93h4.02l.67-54.01s1.7,18.49,5.47,26.79,2.83-45.65,2.83-45.65c0,0,4.42,52.31,1.4,72.87h3.21l2.33-65.71s.85,18.39,2.64,21.51c1.79,3.11,9.72-46.78,9.72-46.78,0,0-5.09,34.81-1.32,45.18,0,0,4.15,16.41,7.83,45.81h3.49s-.09-48.92,8.58-64.39c0,0-8.87,39.62-3.77,47.16,0,0,6.98-7.92,8.68-33.39,0,0,1.89,37.35-2.08,43.96,0,0,9.81-16.22,27.73-54.9,0,0-4.34,10.94-3.77,16.79.57,5.85,9.43,15.09,9.43,15.09,0,0,5.66-6.98,6.41-21.32,0,0-3.21,57.6,1.7,51l5.19-.06.66-54.33,4.34,23.58s10-15.28,4.53-41.88c0,0,9.06,26.6,8.11,34.52-.94,7.92,5.47-37.92,5.47-37.92,0,0-1.79,72.13,1.41,76.09h5.19s-4.9-59.49-2.83-71.18c0,0,5.09,24.34,6.6,40.75l4.9-24.52s-1.51,53.58,1.13,54.71l7.64.09v40.37H21.04v-40.67l4.42-.5Z"/>
  <path class="cls-4" d="M1592.71,1333.3s-2.9-172.57,68.45-190.4v16.59s6.84-10.84,23.18-16.59c0,0-6.49,14.32-5.45,32.81.1,1.78.83,3.49,2.09,4.74,2.53,2.5,7.53,6.57,14.71,8.34l8.12.38c2.19.1,4.31.8,6.1,2.06,7.02,4.96,21.84,18.91-5.37,34.43,0,0-7.83,5.06-25.56,8.37v12.76s21.05,30.54,6.12,79.08l-1.35,40.55s1.45,15.76-11.1,29.14l.47,35.99s-6.43,44.8-58.08,69.53l-.05,47.24s-8.56,37.33-5.44,64.09c0,0,3.11,17.27,11.82,33.13,0,0,10.73.31,10.89,16.02h-22.87s-25.25-43.27-28.21-74.54c0,0-5.44,5.44-5.76,11.2s0,47.45,0,47.45c0,0,12.44,8.5,15.97,21.67h-28s-8.09-5.6-10.79-21.47v-47.29s-11.93-5.39-11.51-75.29c0,0-39.93,18.82-116.15-5.29,0,0,1.56,15.56-2.18,26.44s-20.84,16.64-26.44,42.93c-5.6,26.29,16.64,57.71,16.64,57.71,0,0,12.76,4.12,11.04,16.62l-27.48.1-.1-23.13s-24.71-12.21-29.48-73.76c0,0-7.88,17.47-30.7,35.93v55.9s9.74.89,12.73,10.81h-28.58s-5.13-6.65-5.52-18.71v-39.64s-17.6-24.53,0-56.26v-41.07s5.89-8.19,6.61-25.3v-38.06s-19.86-1.76-22.56-22.71c-2.7-20.95-.21-71.35,46.46-67.41,0,0,23.44,9.75,35.26,4.36s42.31-24.47,107.44-29.24l104.63-.22Z"/>
  <path class="cls-4" d="M520.64,1214.59s-29.25-20.69-66.11,26.63c-36.86,47.32-76.57,31.39-78,13.79s2.38-31.63,38.05-40.67c0,0-22.35-13.79-49.94,15.7-27.59,29.49,12.84,64.51,22.83,63.55,0,0,3.08,23.41-133.43-17.49,0,0-25.92-7.13-71.1,33.06,0,0-55.17,41.62-62.07,93.22,0,0-1.34,11.59-20.96,22.29-19.62,10.7-9.39,48.39-4.04,63.85l1.07,12.96s16.17-19.26,4.52-38.76c0,0,11.18,2.26,10.34,18.31,0,0,13.08-16.05-9.87-31.03v-6.06s15.58-8.2,25.09-38.29c0,0,1.31-27.8,18.55-49.87,0,0-3.92,135.42-8.92,150.04,0,0-14.27,14.12-14.63,29.1s2.62,31.3-.95,75.89c0,0-4.64,32.64-10.52,49.23,0,0-1.9,4.22,0,8.5,1.9,4.28,4.52-3.09,4.52-3.09,0,0,6.27,29.61,37.63,14.45,0,0,1.93-10.26-14.39-32.1,0,0-3.12-41.74,4.37-61.18s33.53-90.25,57.97-102.38c0,0,4.1,31.57-13.02,62.42,0,0-2.5,5.53,0,10.34s31.21,81.51,31.21,81.51c0,0-1.43,23.9,1.78,28.36s6.72-2.73,6.72-2.73c0,0,5.17,8.74,22.53,14.63,17.36,5.89,29.9-4.7,29.9-4.7,0,0-6.57-15.58-39.21-36.09,0,0-16.29-56.12-12.25-64.92,4.04-8.8-4.1-1.13,32.46-76.69,0,0,41.32,16.23,43.73,52.26,0,0,4.01-2.32,3.84-15.16,0,0,11.36-6.12,11.71-11.47s35.02,3.69,80.32-6.84c0,0,18.01,60.11,28.54,95.78l.77,25.39s-1.55,6.48-3.69,13.73c-2.14,7.25-.59,14.63,5.47,12.25,6.06-2.38,5.05,6.6,6.48,13.56s25.15,13.91,36.38,4.28c0,0,.18-11.24-14.98-27.65,0,0,2.85-9.99-9.1-25.86l-.54-24.97s11.06-21.22-1.61-46.19c0,0-5.17-18.91-.36-32.64,0,0,5.89,3.03,11.41-.71,5.53-3.75,1.78-4.28,9.45-3.75,7.67.54,9.27,49.76,7.85,59.39s14.45,34.07,14.98,40.31,3.03,25.15-4.28,44.41c0,0,2.68,3.03,9.99-.71,0,0-3.03,29.07,37.28,11.41l-29.43-56.9s9.81-51.37,2.85-69.02c0,0,8.56-17.48,9.99-51.01,0,0,12.48-13.91,12.96-27.47s9.75-34.72,9.75-34.72c0,0,6.42-14.74-5.71-40.43,0,0-1.07-29.61,6.66-35.55,0,0,5.95-16.53,17.12-18.43s6.66-24.38,6.66-24.38c0,0,41.6,25.62,59.68,5.77,0,0,2.51-7.43-8.19-15.28,0,0,43.46-2.62,45.15-40.01s-44.44-57.85-71.07-43.1c0,0,86.74,10.74,37.75,51.4l-20.45-.45s-29.58-48.93-65.78-63.53c0,0-9.6-2.8-21.74,4.5Z"/>
</svg>