<?xml version="1.0" encoding="UTF-8"?>
<svg id="Capa_1" xmlns="http://www.w3.org/2000/svg" viewBox="0 0 2100.01 1471.09">
  <defs>
    <style>
      .cls-1 {
        stroke-width: 0px;
      }

      .cls-1, .cls-2 {
        stroke: #1e1e1c;
      }

      .cls-1, .cls-2, .cls-3 {
        fill: #1d1d1b;
      }

      .cls-1, .cls-4 {
        stroke-miterlimit: 10;
      }

      .cls-2, .cls-4 {
        stroke-width: .1px;
      }

      .cls-2, .cls-4, .cls-3 {
        stroke-linecap: round;
      }

      .cls-2, .cls-3 {
        stroke-linejoin: round;
      }

      .cls-4 {
        fill: #f49525;
        stroke: #f49525;
      }

      .cls-3 {
        stroke: #1d1d1b;
      }
    </style>
  </defs>
  <path class="cls-4" d="M1746.94,453.53C1639.43,187.64,1378.82.05,1074.39.05,682.21.05,362.74,311.39,349.65,700.39l33.55-1.26c267.96-13.66,321.16,17.84,321.16,17.84-17.62,24.86-198.88,14.42-198.88,14.42,88.24,23.91-155.71,22.13-155.71,22.13,14.87,387.37,333.6,696.84,724.62,696.84,236.55,0,446.65-113.27,579.02-288.52,0,0-395.05,3.56-441.35-23.77,0,0,188.79-33.78,313.28-20.11,0,0-104.64-21.4,3.53-23.29l175.29-9.69c60.7-106.02,95.39-228.84,95.39-359.77,0-79.12-12.67-155.29-36.1-226.57,0,0-160.98,10.4-226.45-14.65,0,0,31.03-20.04,209.94-7.51,0,0-132.79-18.98-14.75-24.67l14.75,1.72Z"/>
  <path class="cls-1" d="M354.57,1424.72s-1.12-30.49,9.67-53.17c0,0-5.58,41.65-1.86,51.31,3.72,9.67,8.92-13.39.37-77.72,0,0,6.16,27.53,8.05,39.92,0,0,5.67-23.92,5.46-58.17,0,0,5.88,69.08,3.57,96.8,0,0,3.57-58.8,2.31-72.86,0,0,6.09,14.49,5.67,37.17,0,0,4.2-1.89,6.09-21.84,0,0,3.78,53.76,2.1,56.28-1.68,2.52,7.14,1.68,7.14,1.68v-28.14s-5.04-6.93-5.88-13.65c0,0,1.38,3.8,5.88,4.96,0,0,3.13-9.45,1.56-26.25,0,0,5.88,27.09,3.25,33.7,0,0,2.31,7.35,5.14,13.44,2.83,6.09,22.01-81.06-36.74-135.72,0,0,52.57,37.63,46.99,148.63,0,0,12.47-119.5,49.66-178.25,0,0-35.7,59.87-33.09,166.59l5.95-32.72s-5.21,26.77.74,32.72c0,0,8.55-70.65,42.76-120.48,0,0-34.21,67.68-31.61,103.37,0,0,9.67,2.6,17.1-33.47l-1.49,18.96-3.71,25.96s2.1,1.26,5.67-6.3c3.57-7.56-1.89,26.46-1.89,26.46h6.93s1.68-11.97-1.05-26.67l-4.83-16.59s4.83,1.47,10.08,10.71c0,0-.84-3.78,5.88-21.42,0,0-5.25,46.8,1.68,55h5.67v-56.89l5.04,22.26s-3.78-22.68,0-34.86c0,0,3.78,32.76,9.03,68.24l3.57,1.25-5.46-64.24s5.25,35.7,16.59,30.66l1.35-32.31s1.68,33.62,7.56,66.7h4.48l.75-60.12s1.89,20.58,6.09,29.82,3.15-50.82,3.15-50.82c0,0,4.92,58.23,1.56,81.11h3.57l2.59-73.14s.94,20.47,2.94,23.94c1.99,3.46,10.81-52.08,10.81-52.08,0,0-5.67,38.74-1.47,50.29,0,0,4.62,18.27,8.71,50.99h3.88s-.1-54.46,9.55-71.67c0,0-9.87,44.1-4.2,52.5,0,0,7.77-8.82,9.66-37.17,0,0,2.1,41.58-2.31,48.93,0,0,10.92-18.06,30.87-61.11,0,0-4.83,12.18-4.2,18.69.63,6.51,10.5,16.8,10.5,16.8,0,0,6.3-7.77,7.14-23.73,0,0-3.57,64.11,1.89,56.77l5.77-.07.73-60.48,4.83,26.25s11.13-17.01,5.04-46.62c0,0,10.08,29.61,9.03,38.43-1.05,8.82,6.09-42.21,6.09-42.21,0,0-1.99,80.28,1.57,84.69h5.77s-5.46-66.21-3.15-79.23c0,0,5.67,27.09,7.35,45.36l5.46-27.3s-1.68,59.64,1.26,60.9l8.5.1v44.94h-350.07v-45.26l4.92-.56Z"/>
  <path class="cls-1" d="M704.64,1424.72s-1.12-30.49,9.67-53.17c0,0-5.58,41.65-1.86,51.31,3.72,9.67,8.92-13.39.37-77.72,0,0,6.16,27.53,8.05,39.92,0,0,5.67-23.92,5.46-58.17,0,0,5.88,69.08,3.57,96.8,0,0,3.57-58.8,2.31-72.86,0,0,6.09,14.49,5.67,37.17,0,0,4.2-1.89,6.09-21.84,0,0,3.78,53.76,2.1,56.28-1.68,2.52,7.14,1.68,7.14,1.68v-28.14s-5.04-6.93-5.88-13.65c0,0,1.38,3.8,5.88,4.96,0,0,3.13-9.45,1.56-26.25,0,0,5.88,27.09,3.25,33.7,0,0,2.31,7.35,5.14,13.44,2.83,6.09,22.01-81.06-36.74-135.72,0,0,52.57,37.63,46.99,148.63,0,0,12.47-119.5,49.66-178.25,0,0-35.7,59.87-33.09,166.59l5.95-32.72s-5.21,26.77.74,32.72c0,0,8.55-70.65,42.76-120.48,0,0-34.21,67.68-31.61,103.37,0,0,9.67,2.6,17.1-33.47l-1.49,18.96-3.71,25.96s2.1,1.26,5.67-6.3c3.57-7.56-1.89,26.46-1.89,26.46h6.93s1.68-11.97-1.05-26.67l-4.83-16.59s4.83,1.47,10.08,10.71c0,0-.84-3.78,5.88-21.42,0,0-5.25,46.8,1.68,55h5.67v-56.89l5.04,22.26s-3.78-22.68,0-34.86c0,0,3.78,32.76,9.03,68.24l3.57,1.25-5.46-64.24s5.25,35.7,16.59,30.66l1.35-32.31s1.68,33.62,7.56,66.7h4.48l.75-60.12s1.89,20.58,6.09,29.82,3.15-50.82,3.15-50.82c0,0,4.92,58.23,1.56,81.11h3.57l2.59-73.14s.94,20.47,2.94,23.94c1.99,3.46,10.81-52.08,10.81-52.08,0,0-5.67,38.74-1.47,50.29,0,0,4.62,18.27,8.71,50.99h3.88s-.1-54.46,9.55-71.67c0,0-9.87,44.1-4.2,52.5,0,0,7.77-8.82,9.66-37.17,0,0,2.1,41.58-2.31,48.93,0,0,10.92-18.06,30.87-61.11,0,0-4.83,12.18-4.2,18.69.63,6.51,10.5,16.8,10.5,16.8,0,0,6.3-7.77,7.14-23.73,0,0-3.57,64.11,1.89,56.77l5.77-.07.73-60.48,4.83,26.25s11.13-17.01,5.04-46.62c0,0,10.08,29.61,9.03,38.43-1.05,8.82,6.09-42.21,6.09-42.21,0,0-1.99,80.28,1.57,84.69h5.77s-5.46-66.21-3.15-79.23c0,0,5.67,27.09,7.35,45.36l5.46-27.3s-1.68,59.64,1.26,60.9l8.5.1v44.94h-350.07v-45.26l4.92-.56Z"/>
  <path class="cls-1" d="M1054.71,1424.72s-1.12-30.49,9.67-53.17c0,0-5.58,41.65-1.86,51.31s8.92-13.39.37-77.72c0,0,6.16,27.53,8.05,39.92,0,0,5.67-23.92,5.46-58.17,0,0,5.88,69.08,3.57,96.8,0,0,3.57-58.8,2.31-72.86,0,0,6.09,14.49,5.67,37.17,0,0,4.2-1.89,6.09-21.84,0,0,3.78,53.76,2.1,56.28-1.68,2.52,7.14,1.68,7.14,1.68v-28.14s-5.04-6.93-5.88-13.65c0,0,1.38,3.8,5.88,4.96,0,0,3.13-9.45,1.56-26.25,0,0,5.88,27.09,3.25,33.7,0,0,2.31,7.35,5.14,13.44,2.83,6.09,22.01-81.06-36.74-135.72,0,0,52.57,37.63,46.99,148.63,0,0,12.47-119.5,49.66-178.25,0,0-35.7,59.87-33.09,166.59l5.95-32.72s-5.21,26.77.74,32.72c0,0,8.55-70.65,42.76-120.48,0,0-34.21,67.68-31.61,103.37,0,0,9.67,2.6,17.1-33.47l-1.49,18.96-3.71,25.96s2.1,1.26,5.67-6.3c3.57-7.56-1.89,26.46-1.89,26.46h6.93s1.68-11.97-1.05-26.67l-4.83-16.59s4.83,1.47,10.08,10.71c0,0-.84-3.78,5.88-21.42,0,0-5.25,46.8,1.68,55h5.67v-56.89l5.04,22.26s-3.78-22.68,0-34.86c0,0,3.78,32.76,9.03,68.24l3.57,1.25-5.46-64.24s5.25,35.7,16.59,30.66l1.35-32.31s1.68,33.62,7.56,66.7h4.48l.75-60.12s1.89,20.58,6.09,29.82c4.2,9.24,3.15-50.82,3.15-50.82,0,0,4.92,58.23,1.56,81.11h3.57l2.59-73.14s.94,20.47,2.94,23.94c1.99,3.46,10.81-52.08,10.81-52.08,0,0-5.67,38.74-1.47,50.29,0,0,4.62,18.27,8.71,50.99h3.88s-.1-54.46,9.55-71.67c0,0-9.87,44.1-4.2,52.5,0,0,7.77-8.82,9.66-37.17,0,0,2.1,41.58-2.31,48.93,0,0,10.92-18.06,30.87-61.11,0,0-4.83,12.18-4.2,18.69.63,6.51,10.5,16.8,10.5,16.8,0,0,6.3-7.77,7.14-23.73,0,0-3.57,64.11,1.89,56.77l5.77-.07.73-60.48,4.83,26.25s11.13-17.01,5.04-46.62c0,0,10.08,29.61,9.03,38.43-1.05,8.82,6.09-42.21,6.09-42.21,0,0-1.99,80.28,1.57,84.69h5.77s-5.46-66.21-3.15-79.23c0,0,5.67,27.09,7.35,45.36l5.46-27.3s-1.68,59.64,1.26,60.9l8.5.1v44.94h-350.07v-45.26l4.92-.56Z"/>
  <path class="cls-1" d="M1404.78,1424.72s-1.12-30.49,9.67-53.17c0,0-5.58,41.65-1.86,51.31,3.72,9.67,8.92-13.39.37-77.72,0,0,6.16,27.53,8.05,39.92,0,0,5.67-23.92,5.46-58.17,0,0,5.88,69.08,3.57,96.8,0,0,3.57-58.8,2.31-72.86,0,0,6.09,14.49,5.67,37.17,0,0,4.2-1.89,6.09-21.84,0,0,3.78,53.76,2.1,56.28-1.68,2.52,7.14,1.68,7.14,1.68v-28.14s-5.04-6.93-5.88-13.65c0,0,1.38,3.8,5.88,4.96,0,0,3.13-9.45,1.56-26.25,0,0,5.88,27.09,3.25,33.7,0,0,2.31,7.35,5.14,13.44,2.83,6.09,22.01-81.06-36.74-135.72,0,0,52.57,37.63,46.99,148.63,0,0,12.47-119.5,49.66-178.25,0,0-35.7,59.87-33.09,166.59l5.95-32.72s-5.21,26.77.74,32.72c0,0,8.55-70.65,42.76-120.48,0,0-34.21,67.68-31.61,103.37,0,0,9.67,2.6,17.1-33.47l-1.49,18.96-3.71,25.96s2.1,1.26,5.67-6.3c3.57-7.56-1.89,26.46-1.89,26.46h6.93s1.68-11.97-1.05-26.67l-4.83-16.59s4.83,1.47,10.08,10.71c0,0-.84-3.78,5.88-21.42,0,0-5.25,46.8,1.68,55h5.67v-56.89l5.04,22.26s-3.78-22.68,0-34.86c0,0,3.78,32.76,9.03,68.24l3.57,1.25-5.46-64.24s5.25,35.7,16.59,30.66l1.35-32.31s1.68,33.62,7.56,66.7h4.48l.75-60.12s1.89,20.58,6.09,29.82c4.2,9.24,3.15-50.82,3.15-50.82,0,0,4.92,58.23,1.56,81.11h3.57l2.59-73.14s.94,20.47,2.94,23.94c1.99,3.46,10.81-52.08,10.81-52.08,0,0-5.67,38.74-1.47,50.29,0,0,4.62,18.27,8.71,50.99h3.88s-.1-54.46,9.55-71.67c0,0-9.87,44.1-4.2,52.5,0,0,7.77-8.82,9.66-37.17,0,0,2.1,41.58-2.31,48.93,0,0,10.92-18.06,30.87-61.11,0,0-4.83,12.18-4.2,18.69.63,6.51,10.5,16.8,10.5,16.8,0,0,6.3-7.77,7.14-23.73,0,0-3.57,64.11,1.89,56.77l5.77-.07.73-60.48,4.83,26.25s11.13-17.01,5.04-46.62c0,0,10.08,29.61,9.03,38.43-1.05,8.82,6.09-42.21,6.09-42.21,0,0-1.99,80.28,1.57,84.69h5.77s-5.46-66.21-3.15-79.23c0,0,5.67,27.09,7.35,45.36l5.46-27.3s-1.68,59.64,1.26,60.9l8.5.1v44.94h-350.07v-45.26l4.92-.56Z"/>
  <path class="cls-1" d="M1754.85,1425.26s-1.12-30.49,9.67-53.17c0,0-5.58,41.65-1.86,51.31,3.72,9.67,8.92-13.39.37-77.72,0,0,6.16,27.53,8.05,39.92,0,0,5.67-23.92,5.46-58.17,0,0,5.88,69.08,3.57,96.8,0,0,3.57-58.8,2.31-72.86,0,0,6.09,14.49,5.67,37.17,0,0,4.2-1.89,6.09-21.84,0,0,3.78,53.76,2.1,56.28-1.68,2.52,7.14,1.68,7.14,1.68v-28.14s-5.04-6.93-5.88-13.65c0,0,1.38,3.8,5.88,4.96,0,0,3.13-9.45,1.56-26.25,0,0,5.88,27.09,3.25,33.7,0,0,2.31,7.35,5.14,13.44,2.83,6.09,22.01-81.06-36.74-135.72,0,0,52.57,37.63,46.99,148.63,0,0,12.47-119.5,49.66-178.25,0,0-35.7,59.87-33.09,166.59l5.95-32.72s-5.21,26.77.74,32.72c0,0,8.55-70.65,42.76-120.48,0,0-34.21,67.68-31.61,103.37,0,0,9.67,2.6,17.1-33.47l-1.49,18.96-3.71,25.96s2.1,1.26,5.67-6.3c3.57-7.56-1.89,26.46-1.89,26.46h6.93s1.68-11.97-1.05-26.67l-4.83-16.59s4.83,1.47,10.08,10.71c0,0-.84-3.78,5.88-21.42,0,0-5.25,46.8,1.68,55h5.67v-56.89l5.04,22.26s-3.78-22.68,0-34.86c0,0,3.78,32.76,9.03,68.24l3.57,1.25-5.46-64.24s5.25,35.7,16.59,30.66l1.35-32.31s1.68,33.62,7.56,66.7h4.48l.75-60.12s1.89,20.58,6.09,29.82c4.2,9.24,3.15-50.82,3.15-50.82,0,0,4.92,58.23,1.56,81.11h3.57l2.59-73.14s.94,20.47,2.94,23.94c1.99,3.46,10.81-52.08,10.81-52.08,0,0-5.67,38.74-1.47,50.29,0,0,4.62,18.27,8.71,50.99h3.88s-.1-54.46,9.55-71.67c0,0-9.87,44.1-4.2,52.5,0,0,7.77-8.82,9.66-37.17,0,0,2.1,41.58-2.31,48.93,0,0,10.92-18.06,30.87-61.11,0,0-4.83,12.18-4.2,18.69.63,6.51,10.5,16.8,10.5,16.8,0,0,6.3-7.77,7.14-23.73,0,0-3.57,64.11,1.89,56.77l5.77-.07.73-60.48,4.83,26.25s11.13-17.01,5.04-46.62c0,0,10.08,29.61,9.03,38.43-1.05,8.82,6.09-42.21,6.09-42.21,0,0-1.99,80.28,1.57,84.69h5.77s-5.46-66.21-3.15-79.23c0,0,5.67,27.09,7.35,45.36l5.46-27.3s-1.68,59.64,1.26,60.9l8.5.1v44.94h-350.07v-45.26l4.92-.56Z"/>
  <path class="cls-2" d="M1410.77,289.14s32.97,39.06,67.4,48.3c34.44,9.24-44.94,9.24-44.94,9.24,0,0-59.85.84-60.06,57.33-.2,53.35,9.6,79.5,36.97,129.01,3.2,5.78,21.78,57.91,22.17,64.51,1.37,23.31,3.64,81.32-5.14,112.62-10.29,36.69-21.59,49.66-49.46,96.93-4.67,7.93-6.66,17-5.92,26.17,3.14,38.44,1.63,141.93-97.95,152.32,0,0-58.54,2.72-80.57-8.71l30.7-31.53,5.94-8.12-8.06,6-141.85,128.59c-2.49,2.93-4.95,5.82-7.43,8.75l-24.62,38.04s-7.41,19.36-20.76,32.59c-3.75,3.72-7.27,7.67-9.59,12.42l-91.58,187.74c-3.12,6.4-4.66,13.46-4.48,20.58l.33,13.25c.62,24.55-18.81,44.94-43.36,45.5l-19.36.45,2.03-34.52c.45-7.73,2.82-15.04,7.05-21.52,23.27-35.62,103.53-161.48,123.02-232.31,0,0,7.64-56.3,53.37-96.39,5.27-4.62,9.77-10.17,12.48-16.63l37.89-90.19-55.03,32.72s-38.3,16.36-47.97-34.21c0,0-62.48,8.06-73.08-44.93l-26.72,31.93c-4.35,5.19-35.93,28.09-42.16,30.75l-35.14,38.77c-4.09-22.94-20.64-87.01,9.11-141.87,2.24-4.14,3.79-8.61,6.65-12.35,7.93-10.36,25.73-31.4,44.75-39.26,0,0,45.18-25.66,50.76-49.64,0,0,171.31-173.82,363.7-21.36,11.92,9.45,27.86,13.24,42.11,7.91,25.01-9.36,56.88-39.98,53.13-136.01-.23-5.96-1.73-12.07-4.31-17.45-16.65-34.8-79.36-180-17.38-275.66,0,0,13.93-30.77,47.32-19.73Z"/>
  <path class="cls-2" d="M1035.07,980.89l.28,67.19s18.14-12.54,44.17-91c2.23-3.67-12.72,12.18-44.45,23.81Z"/>
  <path class="cls-2" d="M1082.96,1083.38s-9.65-1.99-25.83,42.63l-12.39,18.9s16.31,21.69,77.66,229.18l5.94,33.14,56.53,13.71-35.51-57.45s-46.85-114.16-57.26-188.15c0,0-.37-44.25,5.95-61.73,0,0-6.6-9.27-14.58-11.58l-.51-18.65Z"/>
  <path class="cls-1" d="M4.92,1425.26s-1.12-30.49,9.67-53.17c0,0-5.58,41.65-1.86,51.31,3.72,9.67,8.92-13.39.37-77.72,0,0,6.16,27.53,8.05,39.92,0,0,5.67-23.92,5.46-58.17,0,0,5.88,69.08,3.57,96.8,0,0,3.57-58.8,2.31-72.86,0,0,6.09,14.49,5.67,37.17,0,0,4.2-1.89,6.09-21.84,0,0,3.78,53.76,2.1,56.28-1.68,2.52,7.14,1.68,7.14,1.68v-28.14s-5.04-6.93-5.88-13.65c0,0,1.38,3.8,5.88,4.96,0,0,3.13-9.45,1.56-26.25,0,0,5.88,27.09,3.25,33.7,0,0,2.31,7.35,5.14,13.44,2.83,6.09,22.01-81.06-36.74-135.72,0,0,52.57,37.63,46.99,148.63,0,0,12.47-119.5,49.66-178.25,0,0-35.7,59.87-33.09,166.59l5.95-32.72s-5.21,26.77.74,32.72c0,0,8.55-70.65,42.76-120.48,0,0-34.21,67.68-31.61,103.37,0,0,9.67,2.6,17.1-33.47l-1.49,18.96-3.71,25.96s2.1,1.26,5.67-6.3c3.57-7.56-1.89,26.46-1.89,26.46h6.93s1.68-11.97-1.05-26.67l-4.83-16.59s4.83,1.47,10.08,10.71c0,0-.84-3.78,5.88-21.42,0,0-5.25,46.8,1.68,55h5.67v-56.89l5.04,22.26s-3.78-22.68,0-34.86c0,0,3.78,32.76,9.03,68.24l3.57,1.25-5.46-64.24s5.25,35.7,16.59,30.66l1.35-32.31s1.68,33.62,7.56,66.7h4.48l.75-60.12s1.89,20.58,6.09,29.82c4.2,9.24,3.15-50.82,3.15-50.82,0,0,4.92,58.23,1.56,81.11h3.57l2.59-73.14s.94,20.47,2.94,23.94c1.99,3.46,10.81-52.08,10.81-52.08,0,0-5.67,38.74-1.47,50.29,0,0,4.62,18.27,8.71,50.99h3.88s-.1-54.46,9.55-71.67c0,0-9.87,44.1-4.2,52.5,0,0,7.77-8.82,9.66-37.17,0,0,2.1,41.58-2.31,48.93,0,0,10.92-18.06,30.87-61.11,0,0-4.83,12.18-4.2,18.69.63,6.51,10.5,16.8,10.5,16.8,0,0,6.3-7.77,7.14-23.73,0,0-3.57,64.11,1.89,56.77l5.77-.07.73-60.48,4.83,26.25s11.13-17.01,5.04-46.62c0,0,10.08,29.61,9.03,38.43-1.05,8.82,6.09-42.21,6.09-42.21,0,0-1.99,80.28,1.57,84.69h5.77s-5.46-66.21-3.15-79.23c0,0,5.67,27.09,7.35,45.36l5.46-27.3s-1.68,59.64,1.26,60.9l8.5.1v44.94H0v-45.26l4.92-.56Z"/>
  <path class="cls-3" d="M1749.42,1059.03s-3.23-192.08,76.19-211.94v18.47s7.62-12.06,25.8-18.47c0,0-7.22,15.93-6.07,36.52.11,1.99.92,3.88,2.33,5.28,2.81,2.78,8.39,7.31,16.38,9.28l9.03.42c2.43.11,4.8.89,6.79,2.29,7.81,5.52,24.31,21.05-5.98,38.32,0,0-8.72,5.63-28.45,9.32v14.2s23.43,34,6.81,88.02l-1.5,45.13s1.62,17.55-12.35,32.44l.52,40.06s-7.16,49.87-64.64,77.4l-.06,52.58s-9.52,41.56-6.06,71.34c0,0,3.46,19.22,13.16,36.88,0,0,11.95.35,12.12,17.83h-25.45s-28.11-48.16-31.4-82.97c0,0-6.06,6.06-6.41,12.47-.35,6.41,0,52.81,0,52.81,0,0,13.85,9.47,17.78,24.13h-31.17s-9-6.23-12.01-23.89v-52.64s-13.27-6-12.81-83.81c0,0-44.44,20.95-129.29-5.89,0,0,1.73,17.32-2.42,29.44-4.16,12.12-23.2,18.53-29.44,47.79-6.23,29.26,18.53,64.24,18.53,64.24,0,0,14.2,4.59,12.29,18.5l-30.59.12-.12-25.74s-27.5-13.59-32.81-82.1c0,0-8.77,19.45-34.17,40v62.22s10.84,1,14.17,12.03h-31.82s-5.71-7.4-6.15-20.82v-44.12s-19.59-27.3,0-62.62v-45.71s6.55-9.12,7.36-28.17v-42.36s-22.11-1.96-25.11-25.28c-3-23.32-.23-79.42,51.71-75.03,0,0,26.09,10.85,39.25,4.85s47.1-27.24,119.59-32.55l116.46-.25Z"/>
  <path class="cls-3" d="M556.11,926.9s-32.56-23.03-73.59,29.65c-41.03,52.68-85.23,34.94-86.82,15.35-1.59-19.59,2.65-35.21,42.35-45.26,0,0-24.88-15.35-55.59,17.47-30.71,32.82,14.29,71.8,25.41,70.74,0,0,3.42,26.06-148.52-19.47,0,0-28.85-7.94-79.15,36.79,0,0-61.41,46.32-69.09,103.76,0,0-1.49,12.9-23.33,24.82s-10.46,53.87-4.5,71.07l1.19,14.43s18-21.44,5.03-43.15c0,0,12.44,2.51,11.51,20.38,0,0,14.56-17.87-10.99-34.54v-6.75s17.34-9.13,27.93-42.62c0,0,1.46-30.94,20.65-55.51,0,0-4.37,150.73-9.93,167.01,0,0-15.88,15.72-16.28,32.39-.4,16.68,2.91,34.84-1.06,84.47,0,0-5.16,36.33-11.71,54.79,0,0-2.12,4.7,0,9.46,2.12,4.76,5.03-3.44,5.03-3.44,0,0,6.98,32.96,41.89,16.08,0,0,2.15-11.42-16.01-35.73,0,0-3.47-46.46,4.86-68.09,8.34-21.64,37.32-100.45,64.52-113.95,0,0,4.57,35.14-14.49,69.48,0,0-2.78,6.15,0,11.51s34.74,90.73,34.74,90.73c0,0-1.59,26.6,1.99,31.57,3.57,4.96,7.48-3.04,7.48-3.04,0,0,5.76,9.73,25.08,16.28,19.32,6.55,33.29-5.23,33.29-5.23,0,0-7.31-17.34-43.64-40.17,0,0-18.13-62.47-13.63-72.26,4.5-9.79-4.57-1.26,36.13-85.37,0,0,45.99,18.07,48.67,58.17,0,0,4.47-2.58,4.27-16.87,0,0,12.64-6.82,13.04-12.77s38.98,4.1,89.4-7.61c0,0,20.05,66.9,31.76,106.61l.86,28.26s-1.72,7.21-4.1,15.29c-2.38,8.07-.66,16.28,6.09,13.63,6.75-2.65,5.62,7.35,7.21,15.09s27.99,15.49,40.5,4.76c0,0,.2-12.51-16.68-30.77,0,0,3.18-11.12-10.12-28.79l-.6-27.79s12.31-23.62-1.79-51.42c0,0-5.76-21.04-.4-36.33,0,0,6.55,3.37,12.71-.79,6.15-4.17,1.99-4.76,10.52-4.17,8.54.6,10.32,55.39,8.74,66.11s16.08,37.92,16.68,44.87c.6,6.95,3.37,27.99-4.76,49.43,0,0,2.98,3.37,11.12-.79,0,0-3.37,32.36,41.49,12.71l-32.76-63.33s10.92-57.18,3.18-76.83c0,0,9.53-19.46,11.12-56.78,0,0,13.9-15.49,14.43-30.57.53-15.09,10.85-38.65,10.85-38.65,0,0,7.15-16.41-6.35-45,0,0-1.19-32.96,7.41-39.57,0,0,6.62-18.4,19.06-20.51,12.44-2.12,7.41-27.13,7.41-27.13,0,0,46.31,28.52,66.43,6.42,0,0,2.79-8.27-9.12-17.01,0,0,48.37-2.91,50.26-44.54,1.89-41.62-49.47-64.39-79.11-47.98,0,0,96.55,11.95,42.02,57.21l-22.76-.5s-32.92-54.47-73.22-70.71c0,0-10.68-3.11-24.2,5.01Z"/>
</svg>